<svg width="189" height="120" viewBox="0 0 189 120" fill="none" xmlns="http://www.w3.org/2000/svg">
  <path d="M89.5 30.5C89.5 38.5 88 45.5 85 51.5C82 57.5 77.5 62 71.5 65C65.5 68 58 69.5 49 69.5C43.8333 69.5 39 68.6667 34.5 67C30 65.3333 26.5 62.8333 24 59.5C21.5 56.1667 20.25 52 20.25 47C20.25 42.6667 21.1667 38.8333 23 35.5C24.8333 32.1667 27.5 29.1667 31 26.5C34.5 23.8333 38.8333 21.3333 44 19C44.1667 18.3333 44.25 17.5 44.25 16.5C44.25 14.5 43.75 13 42.75 12C41.75 11 40 10.5 37.5 10.5C35.3333 10.5 33.5 11 32 12C30.5 13 29.3333 14.1667 28.5 15.5C27.8333 16.8333 27.5 18.1667 27.5 19.5C27.5 20.8333 27.8333 22 28.5 23C28.8333 23.8333 29.8333 24.9167 31.5 26.25C33.1667 27.5833 34 28.9167 34 30.25C34 31.25 33.5 32.0833 32.5 32.75C31.5 33.4167 30.3333 33.75 29 33.75C26.3333 33.75 24.3333 32.8333 23 31C21.6667 29.1667 21 26.9167 21 24.25C21 20.75 22.1667 17.6667 24.5 15C26.8333 12.3333 30 10.25 34 8.75C38 7.25 42.5 6.5 47.5 6.5C54.1667 6.5 59.5 7.5 63.5 9.5C67.5 11.5 70.3333 14.25 72 17.75C73.6667 21.25 74.5 25.3333 74.5 30V52C74.5 53.3333 74.75 54.3333 75.25 55C75.75 55.6667 76.5 56 77.5 56C78.3333 56 79 55.75 79.5 55.25C80 54.75 80.5 53.9167 81 52.75L89.5 55C88.1667 58.8333 86.3333 62 84 64.5C81.6667 67 78.6667 68.9167 75 70.25C71.3333 71.5833 66.8333 72.25 61.5 72.25C56.1667 72.25 51.6667 71.5 48 70C44.3333 68.5 41.5 66.4167 39.5 63.75C37.5 61.0833 36.3333 58 36 54.5C34.3333 58.3333 31.9167 61.4167 28.75 63.75C25.5833 66.0833 21.6667 67.25 17 67.25L17.5 58C24.1667 58 29.1667 55.5 32.5 50.5C35.8333 45.5 37.5 38.5 37.5 29.5V25C34.8333 27 32.6667 29.3333 31 32C29.3333 34.6667 28.5 37.5 28.5 40.5C28.5 44 29.5 46.75 31.5 48.75C33.5 50.75 36.1667 51.75 39.5 51.75C42.5 51.75 45 50.75 47 48.75C49 46.75 50 44 50 40.5V18.5C50 17.5 50 16.8333 50 16.5C50 16.1667 49.8333 15.8333 49.5 15.5C49.1667 15.1667 48.3333 15 47 15C46.1667 15 45.4167 15.0833 44.75 15.25L47.5 8.5C51.1667 8.66667 54.25 9 56.75 9.5C59.25 10 61.1667 10.8333 62.5 12C63.8333 13.1667 64.5 14.8333 64.5 17V47.5C64.5 51.1667 65.3333 53.8333 67 55.5C68.6667 57.1667 71 58 74 58C77.3333 58 80.3333 56.9167 83 54.75C85.6667 52.5833 87.5 49.5833 88.5 45.75C89.1667 41.0833 89.5 36 89.5 30.5Z" fill="white"/>
  <path d="M124.25 11C124.25 12.3333 123.833 13.5 123 14.5C122.167 15.5 120.917 16.3333 119.25 17C117.583 17.6667 115.5 18 113 18C110.5 18 108.333 17.6667 106.5 17C104.667 16.3333 103.333 15.4167 102.5 14.25C101.667 13.0833 101.25 11.8333 101.25 10.5C101.25 9.16667 101.667 8 102.5 7C103.333 6 104.667 5.16667 106.5 4.5C108.333 3.83333 110.5 3.5 113 3.5C115.5 3.5 117.583 3.83333 119.25 4.5C120.917 5.16667 122.167 6.08333 123 7.25C123.833 8.41667 124.25 9.66667 124.25 11ZM124 30.5C124 42.5 122.75 51.4167 120.25 57.25C117.75 63.0833 113.25 67.3333 106.75 70L105 61.5C109 59.8333 111.7 57.1667 113.1 53.5C114.5 49.8333 115.2 44.5 115.2 37.5L116 23.5C116.333 22.1667 116.917 21.0833 117.75 20.25C118.583 19.4167 119.583 18.8333 120.75 18.5C121.917 18.1667 123.333 18 125 18L126.5 25.5L124 30.5Z" fill="white"/>
  <path d="M171.25 30.5C171.25 38.5 169.75 45.5 166.75 51.5C163.75 57.5 159.25 62 153.25 65C147.25 68 139.75 69.5 130.75 69.5C125.583 69.5 120.75 68.6667 116.25 67C111.75 65.3333 108.25 62.8333 105.75 59.5C103.25 56.1667 102 52 102 47C102 42.6667 102.917 38.8333 104.75 35.5C106.583 32.1667 109.25 29.1667 112.75 26.5C116.25 23.8333 120.583 21.3333 125.75 19C125.917 18.3333 126 17.5 126 16.5C126 14.5 125.5 13 124.5 12C123.5 11 121.75 10.5 119.25 10.5C117.083 10.5 115.25 11 113.75 12C112.25 13 111.083 14.1667 110.25 15.5C109.583 16.8333 109.25 18.1667 109.25 19.5C109.25 20.8333 109.583 22 110.25 23C110.583 23.8333 111.583 24.9167 113.25 26.25C114.917 27.5833 115.75 28.9167 115.75 30.25C115.75 31.25 115.25 32.0833 114.25 32.75C113.25 33.4167 112.083 33.75 110.75 33.75C108.083 33.75 106.083 32.8333 104.75 31C103.417 29.1667 102.75 26.9167 102.75 24.25C102.75 20.75 103.917 17.6667 106.25 15C108.583 12.3333 111.75 10.25 115.75 8.75C119.75 7.25 124.25 6.5 129.25 6.5C135.917 6.5 141.25 7.5 145.25 9.5C149.25 11.5 152.083 14.25 153.75 17.75C155.417 21.25 156.25 25.3333 156.25 30V52C156.25 53.3333 156.5 54.3333 157 55C157.5 55.6667 158.25 56 159.25 56C160.083 56 160.75 55.75 161.25 55.25C161.75 54.75 162.25 53.9167 162.75 52.75L171.25 55C169.917 58.8333 168.083 62 165.75 64.5C163.417 67 160.417 68.9167 156.75 70.25C153.083 71.5833 148.583 72.25 143.25 72.25C137.917 72.25 133.417 71.5 129.75 70C126.083 68.5 123.25 66.4167 121.25 63.75C119.25 61.0833 118.083 58 117.75 54.5C116.083 58.3333 113.667 61.4167 110.5 63.75C107.333 66.0833 103.417 67.25 98.75 67.25L99.25 58C105.917 58 110.917 55.5 114.25 50.5C117.583 45.5 119.25 38.5 119.25 29.5V25C116.583 27 114.417 29.3333 112.75 32C111.083 34.6667 110.25 37.5 110.25 40.5C110.25 44 111.25 46.75 113.25 48.75C115.25 50.75 117.917 51.75 121.25 51.75C124.25 51.75 126.75 50.75 128.75 48.75C130.75 46.75 131.75 44 131.75 40.5V18.5C131.75 17.5 131.75 16.8333 131.75 16.5C131.75 16.1667 131.583 15.8333 131.25 15.5C130.917 15.1667 130.083 15 128.75 15C127.917 15 127.167 15.0833 126.5 15.25L129.25 8.5C132.917 8.66667 136 9 138.5 9.5C141 10 142.917 10.8333 144.25 12C145.583 13.1667 146.25 14.8333 146.25 17V47.5C146.25 51.1667 147.083 53.8333 148.75 55.5C150.417 57.1667 152.75 58 155.75 58C159.083 58 162.083 56.9167 164.75 54.75C167.417 52.5833 169.25 49.5833 170.25 45.75C170.917 41.0833 171.25 36 171.25 30.5Z" fill="white"/>
  <circle cx="183" cy="87" r="6" fill="white"/>
</svg> 