<svg width="300" height="80" viewBox="0 0 300 80" fill="none" xmlns="http://www.w3.org/2000/svg">
  <path d="M71.5 30.5C71.5 38.5 70 45.5 67 51.5C64 57.5 59.5 62 53.5 65C47.5 68 40 69.5 31 69.5C25.8333 69.5 21 68.6667 16.5 67C12 65.3333 8.5 62.8333 6 59.5C3.5 56.1667 2.25 52 2.25 47C2.25 42.6667 3.16667 38.8333 5 35.5C6.83333 32.1667 9.5 29.1667 13 26.5C16.5 23.8333 20.8333 21.3333 26 19C26.1667 18.3333 26.25 17.5 26.25 16.5C26.25 14.5 25.75 13 24.75 12C23.75 11 22 10.5 19.5 10.5C17.3333 10.5 15.5 11 14 12C12.5 13 11.3333 14.1667 10.5 15.5C9.83333 16.8333 9.5 18.1667 9.5 19.5C9.5 20.8333 9.83333 22 10.5 23C10.8333 23.8333 11.8333 24.9167 13.5 26.25C15.1667 27.5833 16 28.9167 16 30.25C16 31.25 15.5 32.0833 14.5 32.75C13.5 33.4167 12.3333 33.75 11 33.75C8.33333 33.75 6.33333 32.8333 5 31C3.66667 29.1667 3 26.9167 3 24.25C3 20.75 4.16667 17.6667 6.5 15C8.83333 12.3333 12 10.25 16 8.75C20 7.25 24.5 6.5 29.5 6.5C36.1667 6.5 41.5 7.5 45.5 9.5C49.5 11.5 52.3333 14.25 54 17.75C55.6667 21.25 56.5 25.3333 56.5 30V52C56.5 53.3333 56.75 54.3333 57.25 55C57.75 55.6667 58.5 56 59.5 56C60.3333 56 61 55.75 61.5 55.25C62 54.75 62.5 53.9167 63 52.75L71.5 55C70.1667 58.8333 68.3333 62 66 64.5C63.6667 67 60.6667 68.9167 57 70.25C53.3333 71.5833 48.8333 72.25 43.5 72.25C38.1667 72.25 33.6667 71.5 30 70C26.3333 68.5 23.5 66.4167 21.5 63.75C19.5 61.0833 18.3333 58 18 54.5C16.3333 58.3333 13.9167 61.4167 10.75 63.75C7.58333 66.0833 3.66667 67.25 -1 67.25L-0.5 58C6.16667 58 11.1667 55.5 14.5 50.5C17.8333 45.5 19.5 38.5 19.5 29.5V25C16.8333 27 14.6667 29.3333 13 32C11.3333 34.6667 10.5 37.5 10.5 40.5C10.5 44 11.5 46.75 13.5 48.75C15.5 50.75 18.1667 51.75 21.5 51.75C24.5 51.75 27 50.75 29 48.75C31 46.75 32 44 32 40.5V18.5C32 17.5 32 16.8333 32 16.5C32 16.1667 31.8333 15.8333 31.5 15.5C31.1667 15.1667 30.3333 15 29 15C28.1667 15 27.4167 15.0833 26.75 15.25L29.5 8.5C33.1667 8.66667 36.25 9 38.75 9.5C41.25 10 43.1667 10.8333 44.5 12C45.8333 13.1667 46.5 14.8333 46.5 17V47.5C46.5 51.1667 47.3333 53.8333 49 55.5C50.6667 57.1667 53 58 56 58C59.3333 58 62.3333 56.9167 65 54.75C67.6667 52.5833 69.5 49.5833 70.5 45.75C71.1667 41.0833 71.5 36 71.5 30.5Z" fill="white"/>
  <path d="M106.25 11C106.25 12.3333 105.833 13.5 105 14.5C104.167 15.5 102.917 16.3333 101.25 17C99.5833 17.6667 97.5 18 95 18C92.5 18 90.3333 17.6667 88.5 17C86.6667 16.3333 85.3333 15.4167 84.5 14.25C83.6667 13.0833 83.25 11.8333 83.25 10.5C83.25 9.16667 83.6667 8 84.5 7C85.3333 6 86.6667 5.16667 88.5 4.5C90.3333 3.83333 92.5 3.5 95 3.5C97.5 3.5 99.5833 3.83333 101.25 4.5C102.917 5.16667 104.167 6.08333 105 7.25C105.833 8.41667 106.25 9.66667 106.25 11ZM106 30.5C106 42.5 104.75 51.4167 102.25 57.25C99.75 63.0833 95.25 67.3333 88.75 70L87 61.5C91 59.8333 93.7 57.1667 95.1 53.5C96.5 49.8333 97.2 44.5 97.2 37.5L98 23.5C98.3333 22.1667 98.9167 21.0833 99.75 20.25C100.583 19.4167 101.583 18.8333 102.75 18.5C103.917 18.1667 105.333 18 107 18L108.5 25.5L106 30.5Z" fill="white"/>
  <path d="M153.25 30.5C153.25 38.5 151.75 45.5 148.75 51.5C145.75 57.5 141.25 62 135.25 65C129.25 68 121.75 69.5 112.75 69.5C107.583 69.5 102.75 68.6667 98.25 67C93.75 65.3333 90.25 62.8333 87.75 59.5C85.25 56.1667 84 52 84 47C84 42.6667 84.9167 38.8333 86.75 35.5C88.5833 32.1667 91.25 29.1667 94.75 26.5C98.25 23.8333 102.583 21.3333 107.75 19C107.917 18.3333 108 17.5 108 16.5C108 14.5 107.5 13 106.5 12C105.5 11 103.75 10.5 101.25 10.5C99.0833 10.5 97.25 11 95.75 12C94.25 13 93.0833 14.1667 92.25 15.5C91.5833 16.8333 91.25 18.1667 91.25 19.5C91.25 20.8333 91.5833 22 92.25 23C92.5833 23.8333 93.5833 24.9167 95.25 26.25C96.9167 27.5833 97.75 28.9167 97.75 30.25C97.75 31.25 97.25 32.0833 96.25 32.75C95.25 33.4167 94.0833 33.75 92.75 33.75C90.0833 33.75 88.0833 32.8333 86.75 31C85.4167 29.1667 84.75 26.9167 84.75 24.25C84.75 20.75 85.9167 17.6667 88.25 15C90.5833 12.3333 93.75 10.25 97.75 8.75C101.75 7.25 106.25 6.5 111.25 6.5C117.917 6.5 123.25 7.5 127.25 9.5C131.25 11.5 134.083 14.25 135.75 17.75C137.417 21.25 138.25 25.3333 138.25 30V52C138.25 53.3333 138.5 54.3333 139 55C139.5 55.6667 140.25 56 141.25 56C142.083 56 142.75 55.75 143.25 55.25C143.75 54.75 144.25 53.9167 144.75 52.75L153.25 55C151.917 58.8333 150.083 62 147.75 64.5C145.417 67 142.417 68.9167 138.75 70.25C135.083 71.5833 130.583 72.25 125.25 72.25C119.917 72.25 115.417 71.5 111.75 70C108.083 68.5 105.25 66.4167 103.25 63.75C101.25 61.0833 100.083 58 99.75 54.5C98.0833 58.3333 95.6667 61.4167 92.5 63.75C89.3333 66.0833 85.4167 67.25 80.75 67.25L81.25 58C87.9167 58 92.9167 55.5 96.25 50.5C99.5833 45.5 101.25 38.5 101.25 29.5V25C98.5833 27 96.4167 29.3333 94.75 32C93.0833 34.6667 92.25 37.5 92.25 40.5C92.25 44 93.25 46.75 95.25 48.75C97.25 50.75 99.9167 51.75 103.25 51.75C106.25 51.75 108.75 50.75 110.75 48.75C112.75 46.75 113.75 44 113.75 40.5V18.5C113.75 17.5 113.75 16.8333 113.75 16.5C113.75 16.1667 113.583 15.8333 113.25 15.5C112.917 15.1667 112.083 15 110.75 15C109.917 15 109.167 15.0833 108.5 15.25L111.25 8.5C114.917 8.66667 118 9 120.5 9.5C123 10 124.917 10.8333 126.25 12C127.583 13.1667 128.25 14.8333 128.25 17V47.5C128.25 51.1667 129.083 53.8333 130.75 55.5C132.417 57.1667 134.75 58 137.75 58C141.083 58 144.083 56.9167 146.75 54.75C149.417 52.5833 151.25 49.5833 152.25 45.75C152.917 41.0833 153.25 36 153.25 30.5Z" fill="white"/>
  <path d="M187.5 11C187.5 12.3333 187.083 13.5 186.25 14.5C185.417 15.5 184.167 16.3333 182.5 17C180.833 17.6667 178.75 18 176.25 18C173.75 18 171.583 17.6667 169.75 17C167.917 16.3333 166.583 15.4167 165.75 14.25C164.917 13.0833 164.5 11.8333 164.5 10.5C164.5 9.16667 164.917 8 165.75 7C166.583 6 167.917 5.16667 169.75 4.5C171.583 3.83333 173.75 3.5 176.25 3.5C178.75 3.5 180.833 3.83333 182.5 4.5C184.167 5.16667 185.417 6.08333 186.25 7.25C187.083 8.41667 187.5 9.66667 187.5 11ZM187.25 30.5C187.25 42.5 186 51.4167 183.5 57.25C181 63.0833 176.5 67.3333 170 70L168.25 61.5C172.25 59.8333 174.95 57.1667 176.35 53.5C177.75 49.8333 178.45 44.5 178.45 37.5L179.25 23.5C179.583 22.1667 180.167 21.0833 181 20.25C181.833 19.4167 182.833 18.8333 184 18.5C185.167 18.1667 186.583 18 188.25 18L189.75 25.5L187.25 30.5Z" fill="white"/>
  <path d="M234.5 30.5C234.5 38.5 233 45.5 230 51.5C227 57.5 222.5 62 216.5 65C210.5 68 203 69.5 194 69.5C188.833 69.5 184 68.6667 179.5 67C175 65.3333 171.5 62.8333 169 59.5C166.5 56.1667 165.25 52 165.25 47C165.25 42.6667 166.167 38.8333 168 35.5C169.833 32.1667 172.5 29.1667 176 26.5C179.5 23.8333 183.833 21.3333 189 19C189.167 18.3333 189.25 17.5 189.25 16.5C189.25 14.5 188.75 13 187.75 12C186.75 11 185 10.5 182.5 10.5C180.333 10.5 178.5 11 177 12C175.5 13 174.333 14.1667 173.5 15.5C172.833 16.8333 172.5 18.1667 172.5 19.5C172.5 20.8333 172.833 22 173.5 23C173.833 23.8333 174.833 24.9167 176.5 26.25C178.167 27.5833 179 28.9167 179 30.25C179 31.25 178.5 32.0833 177.5 32.75C176.5 33.4167 175.333 33.75 174 33.75C171.333 33.75 169.333 32.8333 168 31C166.667 29.1667 166 26.9167 166 24.25C166 20.75 167.167 17.6667 169.5 15C171.833 12.3333 175 10.25 179 8.75C183 7.25 187.5 6.5 192.5 6.5C199.167 6.5 204.5 7.5 208.5 9.5C212.5 11.5 215.333 14.25 217 17.75C218.667 21.25 219.5 25.3333 219.5 30V52C219.5 53.3333 219.75 54.3333 220.25 55C220.75 55.6667 221.5 56 222.5 56C223.333 56 224 55.75 224.5 55.25C225 54.75 225.5 53.9167 226 52.75L234.5 55C233.167 58.8333 231.333 62 229 64.5C226.667 67 223.667 68.9167 220 70.25C216.333 71.5833 211.833 72.25 206.5 72.25C201.167 72.25 196.667 71.5 193 70C189.333 68.5 186.5 66.4167 184.5 63.75C182.5 61.0833 181.333 58 181 54.5C179.333 58.3333 176.917 61.4167 173.75 63.75C170.583 66.0833 166.667 67.25 162 67.25L162.5 58C169.167 58 174.167 55.5 177.5 50.5C180.833 45.5 182.5 38.5 182.5 29.5V25C179.833 27 177.667 29.3333 176 32C174.333 34.6667 173.5 37.5 173.5 40.5C173.5 44 174.5 46.75 176.5 48.75C178.5 50.75 181.167 51.75 184.5 51.75C187.5 51.75 190 50.75 192 48.75C194 46.75 195 44 195 40.5V18.5C195 17.5 195 16.8333 195 16.5C195 16.1667 194.833 15.8333 194.5 15.5C194.167 15.1667 193.333 15 192 15C191.167 15 190.417 15.0833 189.75 15.25L192.5 8.5C196.167 8.66667 199.25 9 201.75 9.5C204.25 10 206.167 10.8333 207.5 12C208.833 13.1667 209.5 14.8333 209.5 17V47.5C209.5 51.1667 210.333 53.8333 212 55.5C213.667 57.1667 216 58 219 58C222.333 58 225.333 56.9167 228 54.75C230.667 52.5833 232.5 49.5833 233.5 45.75C234.167 41.0833 234.5 36 234.5 30.5Z" fill="white"/>
  <path d="M267.5 10.75C270.833 10.75 273.583 11.25 275.75 12.25C277.917 13.25 279.417 14.5 280.25 16C281.083 17.5 281.5 18.9167 281.5 20.25C281.5 21.5833 281.083 22.75 280.25 23.75C279.417 24.75 278.417 25.25 277.25 25.25C276.583 25.25 276 25.0833 275.5 24.75C275 24.4167 274.5 24 274 23.5C273.5 23 273 22.5833 272.5 22.25C272 21.9167 271.333 21.75 270.5 21.75C269.167 21.75 268.083 22.0833 267.25 22.75C266.417 23.4167 265.833 24.25 265.5 25.25C265.167 26.25 265 27.25 265 28.25V56.5C265 59.5 265.75 61.5 267.25 62.5C268.75 63.5 271.167 64 274.5 64V70.75H240.5V64C243.833 64 246.25 63.5 247.75 62.5C249.25 61.5 250 59.5 250 56.5V30C250 28.1667 249.75 26.75 249.25 25.75C248.75 24.75 248 24 247 23.5C246 23 244.667 22.75 243 22.75V16C246.5 15.8333 249.583 15.5833 252.25 15.25C254.917 14.9167 257.333 14.4167 259.5 13.75C261.667 13.0833 263.667 12.25 265.5 11.25L267.5 10.75Z" fill="white"/>
  <circle cx="284" cy="64" r="7" fill="white"/>
</svg> 