<svg width="428" height="240" viewBox="0 0 428 240" fill="none" xmlns="http://www.w3.org/2000/svg">
  <!-- White outline/glow for visibility -->
  <filter id="glow" x="-20%" y="-20%" width="140%" height="140%">
    <feGaussianBlur stdDeviation="5" result="blur" />
    <feFlood flood-color="white" result="color" />
    <feComposite in="color" in2="blur" operator="in" result="shadow" />
    <feComposite in="SourceGraphic" in2="shadow" operator="over" />
  </filter>

  <!-- Gradient definitions -->
  <linearGradient id="blueGradient" x1="0%" y1="0%" x2="100%" y2="0%">
    <stop offset="0%" stop-color="#5e60ce" />
    <stop offset="100%" stop-color="#00B4D8" />
  </linearGradient>

  <!-- Main logo with filter applied for white outline/glow -->
  <g filter="url(#glow)">
    <path d="M99 22C99 30 97.5 37 94.5 43C91.5 49 87 53.5 81 56.5C75 59.5 67.5 61 58.5 61C53.333 61 48.5 60.167 44 58.5C39.5 56.833 36 54.333 33.5 51C31 47.667 29.75 43.5 29.75 38.5C29.75 34.167 30.667 30.333 32.5 27C34.333 23.667 37 20.667 40.5 18C44 15.333 48.333 12.833 53.5 10.5C53.667 9.833 53.75 9 53.75 8C53.75 6 53.25 4.5 52.25 3.5C51.25 2.5 49.5 2 47 2C44.833 2 43 2.5 41.5 3.5C40 4.5 38.833 5.667 38 7C37.333 8.333 37 9.667 37 11C37 12.333 37.333 13.5 38 14.5C38.333 15.333 39.333 16.417 41 17.75C42.667 19.083 43.5 20.417 43.5 21.75C43.5 22.75 43 23.583 42 24.25C41 24.917 39.833 25.25 38.5 25.25C35.833 25.25 33.833 24.333 32.5 22.5C31.167 20.667 30.5 18.417 30.5 15.75C30.5 12.25 31.667 9.167 34 6.5C36.333 3.833 39.5 1.75 43.5 0.25C47.5 -1.25 52 -2 57 -2C63.667 -2 69 -1 73 1C77 3 79.833 5.75 81.5 9.25C83.167 12.75 84 16.833 84 21.5V43.5C84 44.833 84.25 45.833 84.75 46.5C85.25 47.167 86 47.5 87 47.5C87.833 47.5 88.5 47.25 89 46.75C89.5 46.25 90 45.417 90.5 44.25L99 46.5C97.667 50.333 95.833 53.5 93.5 56C91.167 58.5 88.167 60.417 84.5 61.75C80.833 63.083 76.333 63.75 71 63.75C65.667 63.75 61.167 63 57.5 61.5C53.833 60 51 57.917 49 55.25C47 52.583 45.833 49.5 45.5 46C43.833 49.833 41.417 52.917 38.25 55.25C35.083 57.583 31.167 58.75 26.5 58.75L27 49.5C33.667 49.5 38.667 47 42 42C45.333 37 47 30 47 21V16.5C44.333 18.5 42.167 20.833 40.5 23.5C38.833 26.167 38 29 38 32C38 35.5 39 38.25 41 40.25C43 42.25 45.667 43.25 49 43.25C52 43.25 54.5 42.25 56.5 40.25C58.5 38.25 59.5 35.5 59.5 32V10C59.5 9 59.5 8.333 59.5 8C59.5 7.667 59.333 7.333 59 7C58.667 6.667 57.833 6.5 56.5 6.5C55.667 6.5 54.917 6.583 54.25 6.75L57 0C60.667 0.167 63.75 0.5 66.25 1C68.75 1.5 70.667 2.333 72 3.5C73.333 4.667 74 6.333 74 8.5V39C74 42.667 74.833 45.333 76.5 47C78.167 48.667 80.5 49.5 83.5 49.5C86.833 49.5 89.833 48.417 92.5 46.25C95.167 44.083 97 41.083 98 37.25C98.667 32.583 99 27.5 99 22Z" fill="url(#blueGradient)"/>
    <path d="M133.75 2.5C133.75 3.833 133.333 5 132.5 6C131.667 7 130.417 7.833 128.75 8.5C127.083 9.167 125 9.5 122.5 9.5C120 9.5 117.833 9.167 116 8.5C114.167 7.833 112.833 6.917 112 5.75C111.167 4.583 110.75 3.333 110.75 2C110.75 0.667 111.167 -0.5 112 -1.5C112.833 -2.5 114.167 -3.333 116 -4C117.833 -4.667 120 -5 122.5 -5C125 -5 127.083 -4.667 128.75 -4C130.417 -3.333 131.667 -2.417 132.5 -1.25C133.333 -0.083 133.75 1.167 133.75 2.5ZM133.5 22C133.5 34 132.25 42.917 129.75 48.75C127.25 54.583 122.75 58.833 116.25 61.5L114.5 53C118.5 51.333 121.2 48.667 122.6 45C124 41.333 124.7 36 124.7 29L125.5 15C125.833 13.667 126.417 12.583 127.25 11.75C128.083 10.917 129.083 10.333 130.25 10C131.417 9.667 132.833 9.5 134.5 9.5L136 17L133.5 22Z" fill="url(#blueGradient)"/>
    <path d="M180.75 22C180.75 30 179.25 37 176.25 43C173.25 49 168.75 53.5 162.75 56.5C156.75 59.5 149.25 61 140.25 61C135.083 61 130.25 60.167 125.75 58.5C121.25 56.833 117.75 54.333 115.25 51C112.75 47.667 111.5 43.5 111.5 38.5C111.5 34.167 112.417 30.333 114.25 27C116.083 23.667 118.75 20.667 122.25 18C125.75 15.333 130.083 12.833 135.25 10.5C135.417 9.833 135.5 9 135.5 8C135.5 6 135 4.5 134 3.5C133 2.5 131.25 2 128.75 2C126.583 2 124.75 2.5 123.25 3.5C121.75 4.5 120.583 5.667 119.75 7C119.083 8.333 118.75 9.667 118.75 11C118.75 12.333 119.083 13.5 119.75 14.5C120.083 15.333 121.083 16.417 122.75 17.75C124.417 19.083 125.25 20.417 125.25 21.75C125.25 22.75 124.75 23.583 123.75 24.25C122.75 24.917 121.583 25.25 120.25 25.25C117.583 25.25 115.583 24.333 114.25 22.5C112.917 20.667 112.25 18.417 112.25 15.75C112.25 12.25 113.417 9.167 115.75 6.5C118.083 3.833 121.25 1.75 125.25 0.25C129.25 -1.25 133.75 -2 138.75 -2C145.417 -2 150.75 -1 154.75 1C158.75 3 161.583 5.75 163.25 9.25C164.917 12.75 165.75 16.833 165.75 21.5V43.5C165.75 44.833 166 45.833 166.5 46.5C167 47.167 167.75 47.5 168.75 47.5C169.583 47.5 170.25 47.25 170.75 46.75C171.25 46.25 171.75 45.417 172.25 44.25L180.75 46.5C179.417 50.333 177.583 53.5 175.25 56C172.917 58.5 169.917 60.417 166.25 61.75C162.583 63.083 158.083 63.75 152.75 63.75C147.417 63.75 142.917 63 139.25 61.5C135.583 60 132.75 57.917 130.75 55.25C128.75 52.583 127.583 49.5 127.25 46C125.583 49.833 123.167 52.917 120 55.25C116.833 57.583 112.917 58.75 108.25 58.75L108.75 49.5C115.417 49.5 120.417 47 123.75 42C127.083 37 128.75 30 128.75 21V16.5C126.083 18.5 123.917 20.833 122.25 23.5C120.583 26.167 119.75 29 119.75 32C119.75 35.5 120.75 38.25 122.75 40.25C124.75 42.25 127.417 43.25 130.75 43.25C133.75 43.25 136.25 42.25 138.25 40.25C140.25 38.25 141.25 35.5 141.25 32V10C141.25 9 141.25 8.333 141.25 8C141.25 7.667 141.083 7.333 140.75 7C140.417 6.667 139.583 6.5 138.25 6.5C137.417 6.5 136.667 6.583 136 6.75L138.75 0C142.417 0.167 145.5 0.5 148 1C150.5 1.5 152.417 2.333 153.75 3.5C155.083 4.667 155.75 6.333 155.75 8.5V39C155.75 42.667 156.583 45.333 158.25 47C159.917 48.667 162.25 49.5 165.25 49.5C168.583 49.5 171.583 48.417 174.25 46.25C176.917 44.083 178.75 41.083 179.75 37.25C180.417 32.583 180.75 27.5 180.75 22Z" fill="url(#blueGradient)"/>
    <path d="M215 2.5C215 3.833 214.583 5 213.75 6C212.917 7 211.667 7.833 210 8.5C208.333 9.167 206.25 9.5 203.75 9.5C201.25 9.5 199.083 9.167 197.25 8.5C195.417 7.833 194.083 6.917 193.25 5.75C192.417 4.583 192 3.333 192 2C192 0.667 192.417 -0.5 193.25 -1.5C194.083 -2.5 195.417 -3.333 197.25 -4C199.083 -4.667 201.25 -5 203.75 -5C206.25 -5 208.333 -4.667 210 -4C211.667 -3.333 212.917 -2.417 213.75 -1.25C214.583 -0.083 215 1.167 215 2.5ZM214.75 22C214.75 34 213.5 42.917 211 48.75C208.5 54.583 204 58.833 197.5 61.5L195.75 53C199.75 51.333 202.45 48.667 203.85 45C205.25 41.333 205.95 36 205.95 29L206.75 15C207.083 13.667 207.667 12.583 208.5 11.75C209.333 10.917 210.333 10.333 211.5 10C212.667 9.667 214.083 9.5 215.75 9.5L217.25 17L214.75 22Z" fill="url(#blueGradient)"/>
    <path d="M262 22C262 30 260.5 37 257.5 43C254.5 49 250 53.5 244 56.5C238 59.5 230.5 61 221.5 61C216.333 61 211.5 60.167 207 58.5C202.5 56.833 199 54.333 196.5 51C194 47.667 192.75 43.5 192.75 38.5C192.75 34.167 193.667 30.333 195.5 27C197.333 23.667 200 20.667 203.5 18C207 15.333 211.333 12.833 216.5 10.5C216.667 9.833 216.75 9 216.75 8C216.75 6 216.25 4.5 215.25 3.5C214.25 2.5 212.5 2 210 2C207.833 2 206 2.5 204.5 3.5C203 4.5 201.833 5.667 201 7C200.333 8.333 200 9.667 200 11C200 12.333 200.333 13.5 201 14.5C201.333 15.333 202.333 16.417 204 17.75C205.667 19.083 206.5 20.417 206.5 21.75C206.5 22.75 206 23.583 205 24.25C204 24.917 202.833 25.25 201.5 25.25C198.833 25.25 196.833 24.333 195.5 22.5C194.167 20.667 193.5 18.417 193.5 15.75C193.5 12.25 194.667 9.167 197 6.5C199.333 3.833 202.5 1.75 206.5 0.25C210.5 -1.25 215 -2 220 -2C226.667 -2 232 -1 236 1C240 3 242.833 5.75 244.5 9.25C246.167 12.75 247 16.833 247 21.5V43.5C247 44.833 247.25 45.833 247.75 46.5C248.25 47.167 249 47.5 250 47.5C250.833 47.5 251.5 47.25 252 46.75C252.5 46.25 253 45.417 253.5 44.25L262 46.5C260.667 50.333 258.833 53.5 256.5 56C254.167 58.5 251.167 60.417 247.5 61.75C243.833 63.083 239.333 63.75 234 63.75C228.667 63.75 224.167 63 220.5 61.5C216.833 60 214 57.917 212 55.25C210 52.583 208.833 49.5 208.5 46C206.833 49.833 204.417 52.917 201.25 55.25C198.083 57.583 194.167 58.75 189.5 58.75L190 49.5C196.667 49.5 201.667 47 205 42C208.333 37 210 30 210 21V16.5C207.333 18.5 205.167 20.833 203.5 23.5C201.833 26.167 201 29 201 32C201 35.5 202 38.25 204 40.25C206 42.25 208.667 43.25 212 43.25C215 43.25 217.5 42.25 219.5 40.25C221.5 38.25 222.5 35.5 222.5 32V10C222.5 9 222.5 8.333 222.5 8C222.5 7.667 222.333 7.333 222 7C221.667 6.667 220.833 6.5 219.5 6.5C218.667 6.5 217.917 6.583 217.25 6.75L220 0C223.667 0.167 226.75 0.5 229.25 1C231.75 1.5 233.667 2.333 235 3.5C236.333 4.667 237 6.333 237 8.5V39C237 42.667 237.833 45.333 239.5 47C241.167 48.667 243.5 49.5 246.5 49.5C249.833 49.5 252.833 48.417 255.5 46.25C258.167 44.083 260 41.083 261 37.25C261.667 32.583 262 27.5 262 22Z" fill="url(#blueGradient)"/>
    <path d="M295 2.25C298.333 2.25 301.083 2.75 303.25 3.75C305.417 4.75 306.917 6 307.75 7.5C308.583 9 309 10.417 309 11.75C309 13.083 308.583 14.25 307.75 15.25C306.917 16.25 305.917 16.75 304.75 16.75C304.083 16.75 303.5 16.583 303 16.25C302.5 15.917 302 15.5 301.5 15C301 14.5 300.5 14.083 300 13.75C299.5 13.417 298.833 13.25 298 13.25C296.667 13.25 295.583 13.583 294.75 14.25C293.917 14.917 293.333 15.75 293 16.75C292.667 17.75 292.5 18.75 292.5 19.75V48C292.5 51 293.25 53 294.75 54C296.25 55 298.667 55.5 302 55.5V62.25H268V55.5C271.333 55.5 273.75 55 275.25 54C276.75 53 277.5 51 277.5 48V21.5C277.5 19.667 277.25 18.25 276.75 17.25C276.25 16.25 275.5 15.5 274.5 15C273.5 14.5 272.167 14.25 270.5 14.25V7.5C274 7.333 277.083 7.083 279.75 6.75C282.417 6.417 284.833 5.917 287 5.25C289.167 4.583 291.167 3.75 293 2.75L295 2.25Z" fill="url(#blueGradient)"/>
    <circle cx="311.5" cy="55.5" r="7" fill="url(#blueGradient)"/>
  </g>
</svg> 