<?xml version="1.0" encoding="UTF-8"?>
<svg width="400" height="400" viewBox="0 0 400 400" xmlns="http://www.w3.org/2000/svg">
  <rect width="400" height="400" fill="#F8E1F4"/>
  
  <!-- Sky -->
  <rect width="400" height="250" fill="#E0F8F7"/>
  
  <!-- Ground -->
  <rect y="250" width="400" height="150" fill="#97E797"/>
  
  <!-- Sun -->
  <circle cx="350" cy="50" r="30" fill="#FFD700"/>
  <circle cx="350" cy="50" r="40" fill="#FFD700" opacity="0.3"/>
  
  <!-- Clouds -->
  <ellipse cx="100" cy="80" rx="30" ry="20" fill="white" opacity="0.7"/>
  <ellipse cx="130" cy="70" rx="40" ry="25" fill="white" opacity="0.7"/>
  <ellipse cx="160" cy="85" rx="30" ry="20" fill="white" opacity="0.7"/>
  
  <!-- Tree trunk -->
  <rect x="150" y="200" width="30" height="100" fill="#8B4513"/>
  
  <!-- Tree foliage -->
  <circle cx="165" cy="180" r="50" fill="#32CD32"/>
  <circle cx="140" cy="150" r="25" fill="#32CD32"/>
  <circle cx="190" cy="150" r="25" fill="#32CD32"/>
  
  <!-- Tree flowers -->
  <circle cx="140" cy="150" r="5" fill="#FF69B4"/>
  <circle cx="165" cy="130" r="5" fill="#FF1493"/>
  <circle cx="190" cy="150" r="5" fill="#FF69B4"/>
  <circle cx="150" cy="180" r="5" fill="#FF1493"/>
  <circle cx="180" cy="180" r="5" fill="#FF69B4"/>
  
  <!-- Mushroom house -->
  <rect x="250" y="270" width="20" height="30" fill="#F5DEB3"/>
  <path d="M240,270 L280,270 L260,230 Z" fill="#FF6347"/>
  <circle cx="260" cy="250" r="15" fill="#FF6347"/>
  <circle cx="260" cy="250" r="10" fill="#FFFFFF"/>
  <rect x="255" y="280" width="10" height="20" fill="#8B4513"/>
  <circle cx="260" cy="275" r="2" fill="#FFD700"/>
  
  <!-- Flowers -->
  <circle cx="50" cy="280" r="10" fill="#FF69B4"/>
  <circle cx="50" cy="280" r="5" fill="#FFFF00"/>
  <rect x="48" y="290" width="4" height="20" fill="#32CD32"/>
  
  <circle cx="80" cy="290" r="10" fill="#FF1493"/>
  <circle cx="80" cy="290" r="5" fill="#FFFF00"/>
  <rect x="78" y="300" width="4" height="20" fill="#32CD32"/>
  
  <circle cx="110" cy="280" r="10" fill="#FF69B4"/>
  <circle cx="110" cy="280" r="5" fill="#FFFF00"/>
  <rect x="108" y="290" width="4" height="20" fill="#32CD32"/>
  
  <circle cx="300" cy="290" r="10" fill="#FF1493"/>
  <circle cx="300" cy="290" r="5" fill="#FFFF00"/>
  <rect x="298" y="300" width="4" height="20" fill="#32CD32"/>
  
  <circle cx="330" cy="280" r="10" fill="#FF69B4"/>
  <circle cx="330" cy="280" r="5" fill="#FFFF00"/>
  <rect x="328" y="290" width="4" height="20" fill="#32CD32"/>
  
  <circle cx="360" cy="290" r="10" fill="#FF1493"/>
  <circle cx="360" cy="290" r="5" fill="#FFFF00"/>
  <rect x="358" y="300" width="4" height="20" fill="#32CD32"/>
  
  <!-- Butterfly -->
  <ellipse cx="200" cy="100" rx="10" ry="5" fill="#9370DB"/>
  <path d="M200,100 Q210,90 220,100 Q210,110 200,100 Z" fill="#FF69B4"/>
  <path d="M200,100 Q190,90 180,100 Q190,110 200,100 Z" fill="#FF69B4"/>
  
  <!-- Rainbow -->
  <path d="M50,150 Q200,50 350,150" stroke="#FF0000" stroke-width="10" fill="none"/>
  <path d="M50,160 Q200,60 350,160" stroke="#FF7F00" stroke-width="10" fill="none"/>
  <path d="M50,170 Q200,70 350,170" stroke="#FFFF00" stroke-width="10" fill="none"/>
  <path d="M50,180 Q200,80 350,180" stroke="#00FF00" stroke-width="10" fill="none"/>
  <path d="M50,190 Q200,90 350,190" stroke="#0000FF" stroke-width="10" fill="none"/>
  <path d="M50,200 Q200,100 350,200" stroke="#4B0082" stroke-width="10" fill="none"/>
  <path d="M50,210 Q200,110 350,210" stroke="#9400D3" stroke-width="10" fill="none"/>
</svg>
