<?xml version="1.0" encoding="UTF-8"?>
<svg width="400" height="400" viewBox="0 0 400 400" xmlns="http://www.w3.org/2000/svg">
  <rect width="400" height="400" fill="#1E5631"/>
  
  <!-- Sky -->
  <rect width="400" height="100" fill="#87CEEB"/>
  
  <!-- Background trees -->
  <path d="M0,100 L0,250 L400,250 L400,100 Z" fill="#2D7A4C"/>
  
  <!-- Middle trees -->
  <path d="M0,150 L0,300 L400,300 L400,150 Z" fill="#1E5631"/>
  
  <!-- Foreground trees -->
  <path d="M0,200 L0,400 L400,400 L400,200 Z" fill="#0F3A1F"/>
  
  <!-- Tree trunks -->
  <rect x="50" y="150" width="20" height="250" fill="#6B4226"/>
  <rect x="150" y="180" width="15" height="220" fill="#6B4226"/>
  <rect x="250" y="160" width="25" height="240" fill="#6B4226"/>
  <rect x="330" y="190" width="18" height="210" fill="#6B4226"/>
  
  <!-- Tree foliage -->
  <ellipse cx="60" cy="150" rx="40" ry="60" fill="#2D7A4C"/>
  <ellipse cx="60" cy="120" rx="30" ry="40" fill="#3D9A6C"/>
  
  <ellipse cx="157" cy="180" rx="35" ry="50" fill="#2D7A4C"/>
  <ellipse cx="157" cy="150" rx="25" ry="30" fill="#3D9A6C"/>
  
  <ellipse cx="262" cy="160" rx="45" ry="70" fill="#2D7A4C"/>
  <ellipse cx="262" cy="120" rx="35" ry="50" fill="#3D9A6C"/>
  
  <ellipse cx="339" cy="190" rx="30" ry="45" fill="#2D7A4C"/>
  <ellipse cx="339" cy="160" rx="20" ry="30" fill="#3D9A6C"/>
  
  <!-- Vines -->
  <path d="M80,120 Q100,150 90,180 Q80,210 100,240" stroke="#3D9A6C" stroke-width="3" fill="none"/>
  <path d="M240,130 Q260,160 250,190 Q240,220 260,250" stroke="#3D9A6C" stroke-width="3" fill="none"/>
  
  <!-- Flowers -->
  <circle cx="90" cy="180" r="5" fill="#FF5733"/>
  <circle cx="100" cy="240" r="5" fill="#C70039"/>
  <circle cx="250" cy="190" r="5" fill="#FFC300"/>
  <circle cx="260" cy="250" r="5" fill="#FF5733"/>
  
  <!-- Waterfall -->
  <path d="M180,100 L220,100 L220,400 L180,400 Z" fill="#87CEEB" opacity="0.7"/>
  <path d="M190,100 Q200,150 190,200 Q180,250 190,300 Q200,350 190,400" stroke="white" stroke-width="2" fill="none"/>
  <path d="M210,100 Q200,150 210,200 Q220,250 210,300 Q200,350 210,400" stroke="white" stroke-width="2" fill="none"/>
</svg>
