<?xml version="1.0" encoding="UTF-8"?>
<svg width="400" height="400" viewBox="0 0 400 400" xmlns="http://www.w3.org/2000/svg">
  <!-- Background gradient -->
  <defs>
    <linearGradient id="nightSky" x1="0%" y1="0%" x2="100%" y2="100%">
      <stop offset="0%" style="stop-color:#0f2027;stop-opacity:1" />
      <stop offset="50%" style="stop-color:#203a43;stop-opacity:1" />
      <stop offset="100%" style="stop-color:#2c5364;stop-opacity:1" />
    </linearGradient>
    <radialGradient id="starGlow" cx="50%" cy="50%" r="50%" fx="50%" fy="50%">
      <stop offset="0%" style="stop-color:white;stop-opacity:1" />
      <stop offset="100%" style="stop-color:white;stop-opacity:0" />
    </radialGradient>
  </defs>

  <!-- Night sky background -->
  <rect width="400" height="400" fill="url(#nightSky)"/>

  <!-- Stars -->
  <g>
    <circle cx="50" cy="50" r="1" fill="white"/>
    <circle cx="80" cy="30" r="1.5" fill="white"/>
    <circle cx="120" cy="70" r="1" fill="white"/>
    <circle cx="150" cy="40" r="1.2" fill="white"/>
    <circle cx="200" cy="30" r="1" fill="white"/>
    <circle cx="250" cy="60" r="1.5" fill="white"/>
    <circle cx="280" cy="40" r="1" fill="white"/>
    <circle cx="320" cy="70" r="1.2" fill="white"/>
    <circle cx="350" cy="30" r="1" fill="white"/>
    <circle cx="30" cy="100" r="1.5" fill="white"/>
    <circle cx="70" cy="120" r="1" fill="white"/>
    <circle cx="120" cy="150" r="1.2" fill="white"/>
    <circle cx="170" cy="100" r="1" fill="white"/>
    <circle cx="220" cy="130" r="1.5" fill="white"/>
    <circle cx="270" cy="110" r="1" fill="white"/>
    <circle cx="320" cy="140" r="1.2" fill="white"/>
    <circle cx="370" cy="120" r="1" fill="white"/>
    <circle cx="40" cy="170" r="1.5" fill="white"/>
    <circle cx="90" cy="200" r="1" fill="white"/>
    <circle cx="140" cy="180" r="1.2" fill="white"/>
    <circle cx="190" cy="210" r="1" fill="white"/>
    <circle cx="240" cy="190" r="1.5" fill="white"/>
    <circle cx="290" cy="170" r="1" fill="white"/>
    <circle cx="340" cy="200" r="1.2" fill="white"/>
    <circle cx="380" cy="180" r="1" fill="white"/>
    <circle cx="30" cy="230" r="1.5" fill="white"/>
    <circle cx="80" cy="260" r="1" fill="white"/>
    <circle cx="130" cy="240" r="1.2" fill="white"/>
    <circle cx="180" cy="270" r="1" fill="white"/>
    <circle cx="230" cy="250" r="1.5" fill="white"/>
    <circle cx="280" cy="230" r="1" fill="white"/>
    <circle cx="330" cy="260" r="1.2" fill="white"/>
    <circle cx="370" cy="240" r="1" fill="white"/>
    <circle cx="40" cy="300" r="1.5" fill="white"/>
    <circle cx="90" cy="330" r="1" fill="white"/>
    <circle cx="140" cy="310" r="1.2" fill="white"/>
    <circle cx="190" cy="340" r="1" fill="white"/>
    <circle cx="240" cy="320" r="1.5" fill="white"/>
    <circle cx="290" cy="300" r="1" fill="white"/>
    <circle cx="340" cy="330" r="1.2" fill="white"/>
    <circle cx="380" cy="310" r="1" fill="white"/>
    <circle cx="60" cy="370" r="1.5" fill="white"/>
    <circle cx="110" cy="350" r="1" fill="white"/>
    <circle cx="160" cy="380" r="1.2" fill="white"/>
    <circle cx="210" cy="360" r="1" fill="white"/>
    <circle cx="260" cy="390" r="1.5" fill="white"/>
    <circle cx="310" cy="370" r="1" fill="white"/>
    <circle cx="360" cy="350" r="1.2" fill="white"/>
  </g>

  <!-- Larger glowing stars -->
  <g>
    <circle cx="100" cy="80" r="2" fill="white"/>
    <circle cx="100" cy="80" r="4" fill="url(#starGlow)" opacity="0.7"/>

    <circle cx="300" cy="100" r="2.5" fill="white"/>
    <circle cx="300" cy="100" r="5" fill="url(#starGlow)" opacity="0.7"/>

    <circle cx="180" cy="150" r="2" fill="white"/>
    <circle cx="180" cy="150" r="4" fill="url(#starGlow)" opacity="0.7"/>

    <circle cx="250" cy="220" r="2.5" fill="white"/>
    <circle cx="250" cy="220" r="5" fill="url(#starGlow)" opacity="0.7"/>

    <circle cx="80" cy="280" r="2" fill="white"/>
    <circle cx="80" cy="280" r="4" fill="url(#starGlow)" opacity="0.7"/>

    <circle cx="350" cy="280" r="2.5" fill="white"/>
    <circle cx="350" cy="280" r="5" fill="url(#starGlow)" opacity="0.7"/>
  </g>

  <!-- Moon -->
  <circle cx="200" cy="200" r="60" fill="#E6E6FA"/>
  <circle cx="170" cy="170" r="15" fill="#D0D0E1" opacity="0.7"/>
  <circle cx="230" cy="190" r="20" fill="#D0D0E1" opacity="0.7"/>
  <circle cx="190" cy="230" r="18" fill="#D0D0E1" opacity="0.7"/>

  <!-- Dreamy clouds -->
  <path d="M120,150 Q150,120 180,150 Q210,180 240,150 Q270,120 300,150" stroke="white" stroke-width="2" stroke-opacity="0.3" fill="none"/>
  <path d="M100,250 Q130,220 160,250 Q190,280 220,250 Q250,220 280,250" stroke="white" stroke-width="2" stroke-opacity="0.3" fill="none"/>
</svg>
