<?xml version="1.0" encoding="UTF-8"?>
<svg width="400" height="400" viewBox="0 0 400 400" xmlns="http://www.w3.org/2000/svg">
  <!-- Background gradient -->
  <defs>
    <linearGradient id="bgGradient" x1="0%" y1="0%" x2="100%" y2="100%">
      <stop offset="0%" style="stop-color:#00B4D8;stop-opacity:1" />
      <stop offset="100%" style="stop-color:#0077B6;stop-opacity:1" />
    </linearGradient>
  </defs>
  <rect width="400" height="400" fill="url(#bgGradient)"/>
  
  <!-- Decorative elements -->
  <circle cx="200" cy="200" r="100" fill="#90E0EF" opacity="0.3"/>
  <circle cx="200" cy="200" r="70" fill="#CAF0F8" opacity="0.4"/>
  
  <!-- Meditation icon -->
  <circle cx="200" cy="200" r="40" fill="white" opacity="0.9"/>
  <path d="M200,180 Q220,190 200,200 Q180,210 200,220" stroke="#0077B6" stroke-width="4" fill="none"/>
  
  <!-- Decorative waves -->
  <path d="M50,300 Q100,280 150,300 Q200,320 250,300 Q300,280 350,300" stroke="white" stroke-width="2" opacity="0.6" fill="none"/>
  <path d="M50,320 Q100,300 150,320 Q200,340 250,320 Q300,300 350,320" stroke="white" stroke-width="2" opacity="0.4" fill="none"/>
  <path d="M50,340 Q100,320 150,340 Q200,360 250,340 Q300,320 350,340" stroke="white" stroke-width="2" opacity="0.2" fill="none"/>
  
  <!-- Small decorative circles -->
  <circle cx="100" cy="100" r="10" fill="white" opacity="0.5"/>
  <circle cx="300" cy="100" r="15" fill="white" opacity="0.3"/>
  <circle cx="100" cy="300" r="12" fill="white" opacity="0.2"/>
  <circle cx="300" cy="300" r="8" fill="white" opacity="0.4"/>
</svg>
