<?xml version="1.0" encoding="UTF-8"?>
<svg width="400" height="400" viewBox="0 0 400 400" xmlns="http://www.w3.org/2000/svg">
  <rect width="400" height="400" fill="#F2D2A9"/>
  
  <!-- Sky gradient -->
  <linearGradient id="skyGradient" x1="0%" y1="0%" x2="0%" y2="60%">
    <stop offset="0%" style="stop-color:#E8A249;stop-opacity:1" />
    <stop offset="100%" style="stop-color:#F2D2A9;stop-opacity:1" />
  </linearGradient>
  <rect width="400" height="250" fill="url(#skyGradient)"/>
  
  <!-- Sun -->
  <circle cx="200" cy="100" r="40" fill="#E8A249"/>
  <circle cx="200" cy="100" r="60" fill="#E8A249" opacity="0.3"/>
  
  <!-- Far dunes -->
  <path d="M0,250 Q50,230 100,250 Q150,270 200,250 Q250,230 300,250 Q350,270 400,250 L400,300 L0,300 Z" fill="#E8A249"/>
  
  <!-- Middle dunes -->
  <path d="M0,270 Q80,240 160,270 Q240,300 320,270 Q400,240 400,270 L400,320 L0,320 Z" fill="#D9924A"/>
  
  <!-- Near dunes -->
  <path d="M0,290 Q100,250 200,290 Q300,330 400,290 L400,400 L0,400 Z" fill="#C67F42"/>
  
  <!-- Cactus -->
  <rect x="100" y="250" width="10" height="40" fill="#5A7247"/>
  <rect x="95" y="230" width="20" height="20" fill="#5A7247"/>
  <rect x="85" y="210" width="40" height="20" fill="#5A7247"/>
  
  <rect x="300" y="270" width="10" height="30" fill="#5A7247"/>
  <rect x="290" y="250" width="30" height="20" fill="#5A7247"/>
</svg>
