<?xml version="1.0" encoding="UTF-8"?>
<svg width="400" height="400" viewBox="0 0 400 400" xmlns="http://www.w3.org/2000/svg">
  <rect width="400" height="400" fill="#2D8A5E"/>
  <path d="M200,350 C270,350 330,290 330,220 C330,150 270,90 200,90 C130,90 70,150 70,220 C70,290 130,350 200,350 Z" fill="#1E5E3F"/>
  <path d="M200,320 C250,320 290,280 290,230 C290,180 250,140 200,140 C150,140 110,180 110,230 C110,280 150,320 200,320 Z" fill="#3CA671"/>
  <path d="M150,230 C150,210 170,190 200,190 C230,190 250,210 250,230 C250,250 230,270 200,270 C170,270 150,250 150,230 Z" fill="#5ED399"/>
  <path d="M180,230 C180,220 190,210 200,210 C210,210 220,220 220,230 C220,240 210,250 200,250 C190,250 180,240 180,230 Z" fill="#8EEDC7"/>
  <path d="M190,230 C190,225 195,220 200,220 C205,220 210,225 210,230 C210,235 205,240 200,240 C195,240 190,235 190,230 Z" fill="#FFFFFF"/>
  <path d="M50,200 L70,180 L90,200 L70,220 Z" fill="#3CA671"/>
  <path d="M310,200 L330,180 L350,200 L330,220 Z" fill="#3CA671"/>
  <path d="M200,50 L220,70 L200,90 L180,70 Z" fill="#3CA671"/>
  <path d="M200,310 L220,330 L200,350 L180,330 Z" fill="#3CA671"/>
</svg>
