<?xml version="1.0" encoding="UTF-8"?>
<svg width="400" height="400" viewBox="0 0 400 400" xmlns="http://www.w3.org/2000/svg">
  <rect width="400" height="400" fill="#7C98B3"/>
  
  <!-- Sky gradient -->
  <linearGradient id="skyGradient" x1="0%" y1="0%" x2="0%" y2="60%">
    <stop offset="0%" style="stop-color:#5D7B9D;stop-opacity:1" />
    <stop offset="100%" style="stop-color:#A4BFD9;stop-opacity:1" />
  </linearGradient>
  <rect width="400" height="250" fill="url(#skyGradient)"/>
  
  <!-- Far mountains -->
  <path d="M0,250 L80,180 L120,210 L200,150 L280,200 L350,160 L400,190 L400,250 Z" fill="#546A7B"/>
  
  <!-- Middle mountains -->
  <path d="M0,250 L50,200 L100,230 L150,180 L200,220 L250,170 L300,210 L350,180 L400,220 L400,250 Z" fill="#3A4A59"/>
  
  <!-- Near mountains -->
  <path d="M0,250 L30,220 L60,240 L100,200 L150,240 L200,190 L250,230 L300,190 L350,230 L400,200 L400,250 Z" fill="#2A3A49"/>
  
  <!-- Ground -->
  <rect y="250" width="400" height="150" fill="#2A3A49"/>
  
  <!-- Lake -->
  <ellipse cx="200" cy="300" rx="150" ry="50" fill="#5D7B9D"/>
  
  <!-- Lake reflection -->
  <ellipse cx="200" cy="300" rx="120" ry="30" fill="#A4BFD9" opacity="0.3"/>
  
  <!-- Sun/Moon -->
  <circle cx="320" cy="80" r="30" fill="#E9D985"/>
  <circle cx="320" cy="80" r="40" fill="#E9D985" opacity="0.3"/>
  
  <!-- Trees on hillside -->
  <path d="M50,250 L40,230 L60,230 Z" fill="#1A2A39"/>
  <path d="M70,250 L60,225 L80,225 Z" fill="#1A2A39"/>
  <path d="M90,250 L80,220 L100,220 Z" fill="#1A2A39"/>
  <path d="M330,250 L320,230 L340,230 Z" fill="#1A2A39"/>
  <path d="M350,250 L340,225 L360,225 Z" fill="#1A2A39"/>
  <path d="M370,250 L360,220 L380,220 Z" fill="#1A2A39"/>
</svg>
