<?xml version="1.0" encoding="UTF-8"?>
<svg width="400" height="400" viewBox="0 0 400 400" xmlns="http://www.w3.org/2000/svg">
  <!-- Background gradient -->
  <defs>
    <linearGradient id="forestBg" x1="0%" y1="0%" x2="100%" y2="100%">
      <stop offset="0%" style="stop-color:#1a4d2e;stop-opacity:1" />
      <stop offset="100%" style="stop-color:#2d6a4f;stop-opacity:1" />
    </linearGradient>
  </defs>
  <rect width="400" height="400" fill="url(#forestBg)"/>
  
  <!-- Forest floor -->
  <path d="M0,300 Q100,280 200,300 Q300,320 400,300 L400,400 L0,400 Z" fill="#1a3a1f"/>
  
  <!-- Trees in background -->
  <path d="M50,200 L30,300 L70,300 Z" fill="#1a3a1f"/>
  <path d="M150,180 L130,300 L170,300 Z" fill="#1a3a1f"/>
  <path d="M250,190 L230,300 L270,300 Z" fill="#1a3a1f"/>
  <path d="M350,200 L330,300 L370,300 Z" fill="#1a3a1f"/>
  
  <!-- Trees in middle ground -->
  <path d="M100,150 L80,300 L120,300 Z" fill="#2d6a4f"/>
  <path d="M200,140 L180,300 L220,300 Z" fill="#2d6a4f"/>
  <path d="M300,160 L280,300 L320,300 Z" fill="#2d6a4f"/>
  
  <!-- Frog on leaf -->
  <ellipse cx="200" cy="250" rx="80" ry="30" fill="#3a7561"/>
  <ellipse cx="200" cy="250" rx="60" ry="20" fill="#4a8b72"/>
  
  <!-- Frog body -->
  <ellipse cx="200" cy="230" rx="30" ry="20" fill="#5eac7d"/>
  
  <!-- Frog head -->
  <circle cx="200" cy="210" r="15" fill="#5eac7d"/>
  
  <!-- Frog eyes -->
  <circle cx="195" cy="205" r="5" fill="#ffff00"/>
  <circle cx="195" cy="205" r="2" fill="#000000"/>
  <circle cx="205" cy="205" r="5" fill="#ffff00"/>
  <circle cx="205" cy="205" r="2" fill="#000000"/>
  
  <!-- Frog legs -->
  <path d="M170,230 Q160,240 170,250" stroke="#5eac7d" stroke-width="5" fill="none"/>
  <path d="M230,230 Q240,240 230,250" stroke="#5eac7d" stroke-width="5" fill="none"/>
  
  <!-- Sun rays -->
  <circle cx="300" cy="100" r="30" fill="#ffff99" opacity="0.3"/>
  <circle cx="300" cy="100" r="20" fill="#ffff99" opacity="0.5"/>
  
  <!-- Mist/fog -->
  <path d="M0,280 Q100,260 200,280 Q300,300 400,280" stroke="white" stroke-width="2" stroke-opacity="0.2" fill="none"/>
  <path d="M0,260 Q100,240 200,260 Q300,280 400,260" stroke="white" stroke-width="2" stroke-opacity="0.2" fill="none"/>
  <path d="M0,240 Q100,220 200,240 Q300,260 400,240" stroke="white" stroke-width="2" stroke-opacity="0.2" fill="none"/>
</svg>
